<svg width="592" height="626" viewBox="0 0 592 626" fill="none" xmlns="http://www.w3.org/2000/svg">
<g filter="url(#filter0_f_184_560)">
<path d="M299.496 218.032C302.239 223.946 327.053 261.219 378.634 298.42C390.587 314.985 412.19 335.95 418.163 389.656C424.136 443.362 427.16 500.126 427.926 521.796C429.386 533.42 425.755 554.845 402.033 562.213L379.153 570.12C367.983 573.653 345.202 579.367 325.862 553.201C300.673 525.782 251.276 463.853 236.804 430.83C226.621 412.43 206.842 371.376 221.404 324.175C226.496 314.373 234.686 284.348 226.713 242.662M299.496 218.032C290.187 201.975 276.028 182.688 268.906 137.868C259.348 77.709 266.497 115.304 259.598 83.8072C252.699 52.3099 213.609 49.001 198.899 56.2043C168.487 69.3808 166.768 96.782 168.152 104.2C169.536 111.618 169.07 130.203 193.531 157.275C217.992 184.346 225.844 225.479 226.713 242.662M299.496 218.032C290.126 226.479 265.117 249.451 226.713 242.662M209.365 82.5047C193.965 89.8593 183.401 96.1548 196.36 122.271C210.308 150.38 214.424 146.907 224.002 162.544L239.698 209.415M328.941 258.272C319.571 266.719 296.411 299.782 229.228 292.965M249.638 320.885C251.322 321.964 230.489 350.778 254.066 403.885C272.927 446.371 328.064 514.233 353.274 542.853" stroke="#C60C0C" stroke-opacity="0.6" stroke-width="5"/>
</g>
<g filter="url(#filter1_f_184_560)">
<path d="M299.496 218.032C302.239 223.946 327.053 261.219 378.634 298.42C390.587 314.985 412.19 335.95 418.163 389.656C424.136 443.362 427.16 500.126 427.926 521.796C429.386 533.42 425.755 554.845 402.033 562.213L379.153 570.12C367.983 573.653 345.202 579.367 325.862 553.201C300.673 525.782 251.276 463.853 236.804 430.83C226.621 412.43 206.842 371.376 221.404 324.175C226.496 314.373 234.686 284.348 226.713 242.662M299.496 218.032C290.187 201.975 276.028 182.688 268.906 137.868C259.348 77.709 266.497 115.304 259.598 83.8072C252.699 52.3099 213.609 49.001 198.899 56.2043C168.487 69.3808 166.768 96.782 168.152 104.2C169.536 111.618 169.07 130.203 193.531 157.275C217.992 184.346 225.844 225.479 226.713 242.662M299.496 218.032C290.126 226.479 265.117 249.451 226.713 242.662M209.365 82.5047C193.965 89.8593 183.401 96.1548 196.36 122.271C210.308 150.38 214.424 146.907 224.002 162.544L239.698 209.415M328.941 258.272C319.571 266.719 296.411 299.782 229.228 292.965M249.638 320.885C251.322 321.964 230.489 350.778 254.066 403.885C272.927 446.371 328.064 514.233 353.274 542.853" stroke="#C60C0C" stroke-opacity="0.6" stroke-width="5"/>
</g>
<g filter="url(#filter2_f_184_560)">
<path d="M299.496 218.032C302.239 223.946 327.053 261.219 378.634 298.42C390.587 314.985 412.19 335.95 418.163 389.656C424.136 443.362 427.16 500.126 427.926 521.796C429.386 533.42 425.755 554.845 402.033 562.213L379.153 570.12C367.983 573.653 345.202 579.367 325.862 553.201C300.673 525.782 251.276 463.853 236.804 430.83C226.621 412.43 206.842 371.376 221.404 324.175C226.496 314.373 234.686 284.348 226.713 242.662M299.496 218.032C290.187 201.975 276.028 182.688 268.906 137.868C259.348 77.709 266.497 115.304 259.598 83.8072C252.699 52.3099 213.609 49.001 198.899 56.2043C168.487 69.3808 166.768 96.782 168.152 104.2C169.536 111.618 169.07 130.203 193.531 157.275C217.992 184.346 225.844 225.479 226.713 242.662M299.496 218.032C290.126 226.479 265.117 249.451 226.713 242.662M209.365 82.5047C193.965 89.8593 183.401 96.1548 196.36 122.271C210.308 150.38 214.424 146.907 224.002 162.544L239.698 209.415M328.941 258.272C319.571 266.719 296.411 299.782 229.228 292.965M249.638 320.885C251.322 321.964 230.489 350.778 254.066 403.885C272.927 446.371 328.064 514.233 353.274 542.853" stroke="#C60C0C" stroke-opacity="0.6" stroke-width="5"/>
</g>
<path d="M299.496 218.032C302.239 223.946 327.053 261.219 378.634 298.42C390.587 314.985 412.19 335.95 418.163 389.656C424.136 443.362 427.16 500.126 427.926 521.796C429.386 533.42 425.755 554.845 402.033 562.213L379.153 570.12C367.983 573.653 345.202 579.367 325.862 553.201C300.673 525.782 251.276 463.853 236.804 430.83C226.621 412.43 206.842 371.376 221.404 324.175C226.496 314.373 234.686 284.348 226.713 242.662M299.496 218.032C290.187 201.975 276.028 182.688 268.906 137.868C259.348 77.709 266.497 115.304 259.598 83.8072C252.699 52.3099 213.609 49.001 198.899 56.2043C168.487 69.3808 166.768 96.782 168.152 104.2C169.536 111.618 169.07 130.203 193.531 157.275C217.992 184.346 225.844 225.479 226.713 242.662M299.496 218.032C290.126 226.479 265.117 249.451 226.713 242.662M209.365 82.5047C193.965 89.8593 183.401 96.1548 196.36 122.271C210.308 150.38 214.424 146.907 224.002 162.544L239.698 209.415M328.941 258.272C319.571 266.719 296.411 299.782 229.228 292.965M249.638 320.885C251.322 321.964 230.489 350.778 254.066 403.885C272.927 446.371 328.064 514.233 353.274 542.853" stroke="white" stroke-opacity="0.6" stroke-width="2"/>
<defs>
<filter id="filter0_f_184_560" x="115.329" y="0.51416" width="365.376" height="625.214" filterUnits="userSpaceOnUse" color-interpolation-filters="sRGB">
<feFlood flood-opacity="0" result="BackgroundImageFix"/>
<feBlend mode="normal" in="SourceGraphic" in2="BackgroundImageFix" result="shape"/>
<feGaussianBlur stdDeviation="25" result="effect1_foregroundBlur_184_560"/>
</filter>
<filter id="filter1_f_184_560" x="135.329" y="20.5142" width="325.376" height="585.214" filterUnits="userSpaceOnUse" color-interpolation-filters="sRGB">
<feFlood flood-opacity="0" result="BackgroundImageFix"/>
<feBlend mode="normal" in="SourceGraphic" in2="BackgroundImageFix" result="shape"/>
<feGaussianBlur stdDeviation="15" result="effect1_foregroundBlur_184_560"/>
</filter>
<filter id="filter2_f_184_560" x="145.329" y="30.5142" width="305.376" height="565.214" filterUnits="userSpaceOnUse" color-interpolation-filters="sRGB">
<feFlood flood-opacity="0" result="BackgroundImageFix"/>
<feBlend mode="normal" in="SourceGraphic" in2="BackgroundImageFix" result="shape"/>
<feGaussianBlur stdDeviation="10" result="effect1_foregroundBlur_184_560"/>
</filter>
</defs>
</svg>
