<svg width="628" height="593" viewBox="0 0 628 593" fill="none" xmlns="http://www.w3.org/2000/svg">
<g filter="url(#filter0_f_184_401)">
<path d="M219.199 291.046C225.146 288.374 262.716 264.013 300.537 212.885C317.245 201.133 338.469 179.785 392.243 174.461C446.018 169.137 502.815 166.799 524.492 166.296C536.132 164.976 557.513 168.866 564.593 192.675L572.224 215.648C575.621 226.86 581.059 249.709 554.661 268.731C526.94 293.587 464.419 342.232 431.223 356.304C412.702 366.265 371.411 385.546 324.39 370.415C314.65 365.205 284.726 356.653 242.947 364.121M219.199 291.046C203.03 300.16 183.574 314.085 138.671 320.665C78.4006 329.495 116.08 322.801 84.5014 329.319C52.923 335.837 49.142 374.885 56.1671 389.68C68.9752 420.249 96.3535 422.299 103.788 421.005C111.222 419.711 129.8 420.401 157.165 396.269C184.53 372.136 225.755 364.782 242.947 364.121M219.199 291.046C227.532 300.517 250.199 325.802 242.947 364.121M82.592 379.532C89.76 395.02 95.9274 405.66 122.198 393.017C150.473 379.41 147.051 375.252 162.802 365.863L209.859 350.735M259.792 262.089C268.124 271.561 300.905 295.119 293.277 362.214M321.442 342.143C322.541 340.472 351.1 361.652 404.489 338.718C447.199 320.372 515.723 266.059 544.645 241.196" stroke="#0C77B4" stroke-opacity="0.52" stroke-width="5"/>
</g>
<g filter="url(#filter1_f_184_401)">
<path d="M219.199 291.046C225.146 288.374 262.716 264.013 300.537 212.885C317.245 201.133 338.469 179.785 392.243 174.461C446.018 169.137 502.815 166.799 524.492 166.296C536.132 164.976 557.513 168.866 564.593 192.675L572.224 215.648C575.621 226.86 581.059 249.709 554.661 268.731C526.94 293.587 464.419 342.232 431.223 356.304C412.702 366.265 371.411 385.546 324.39 370.415C314.65 365.205 284.726 356.653 242.947 364.121M219.199 291.046C203.03 300.16 183.574 314.085 138.671 320.665C78.4006 329.495 116.08 322.801 84.5014 329.319C52.923 335.837 49.142 374.885 56.1671 389.68C68.9752 420.249 96.3535 422.299 103.788 421.005C111.222 419.711 129.8 420.401 157.165 396.269C184.53 372.136 225.755 364.782 242.947 364.121M219.199 291.046C227.532 300.517 250.199 325.802 242.947 364.121M82.592 379.532C89.76 395.02 95.9274 405.66 122.198 393.017C150.473 379.41 147.051 375.252 162.802 365.863L209.859 350.735M259.792 262.089C268.124 271.561 300.905 295.119 293.277 362.214M321.442 342.143C322.541 340.472 351.1 361.652 404.489 338.718C447.199 320.372 515.723 266.059 544.645 241.196" stroke="#0C77B4" stroke-opacity="0.52" stroke-width="5"/>
</g>
<g filter="url(#filter2_f_184_401)">
<path d="M219.199 291.046C225.146 288.374 262.716 264.013 300.537 212.885C317.245 201.133 338.469 179.785 392.243 174.461C446.018 169.137 502.815 166.799 524.492 166.296C536.132 164.976 557.513 168.866 564.593 192.675L572.224 215.648C575.621 226.86 581.059 249.709 554.661 268.731C526.94 293.587 464.419 342.232 431.223 356.304C412.702 366.265 371.411 385.546 324.39 370.415C314.65 365.205 284.726 356.653 242.947 364.121M219.199 291.046C203.03 300.16 183.574 314.085 138.671 320.665C78.4006 329.495 116.08 322.801 84.5014 329.319C52.923 335.837 49.142 374.885 56.1671 389.68C68.9752 420.249 96.3535 422.299 103.788 421.005C111.222 419.711 129.8 420.401 157.165 396.269C184.53 372.136 225.755 364.782 242.947 364.121M219.199 291.046C227.532 300.517 250.199 325.802 242.947 364.121M82.592 379.532C89.76 395.02 95.9274 405.66 122.198 393.017C150.473 379.41 147.051 375.252 162.802 365.863L209.859 350.735M259.792 262.089C268.124 271.561 300.905 295.119 293.277 362.214M321.442 342.143C322.541 340.472 351.1 361.652 404.489 338.718C447.199 320.372 515.723 266.059 544.645 241.196" stroke="#0C77B4" stroke-opacity="0.52" stroke-width="5"/>
</g>
<path d="M219.199 291.046C225.146 288.374 262.716 264.013 300.537 212.885C317.245 201.133 338.469 179.785 392.243 174.461C446.018 169.137 502.815 166.799 524.492 166.296C536.132 164.976 557.513 168.866 564.593 192.675L572.224 215.648C575.621 226.86 581.059 249.709 554.661 268.731C526.94 293.587 464.419 342.232 431.223 356.304C412.702 366.265 371.411 385.546 324.39 370.415C314.65 365.205 284.726 356.653 242.947 364.121M219.199 291.046C203.03 300.16 183.574 314.085 138.671 320.665C78.4006 329.495 116.08 322.801 84.5014 329.319C52.923 335.837 49.142 374.885 56.1671 389.68C68.9752 420.249 96.3535 422.299 103.788 421.005C111.222 419.711 129.8 420.401 157.165 396.269C184.53 372.136 225.755 364.782 242.947 364.121M219.199 291.046C227.532 300.517 250.199 325.802 242.947 364.121M82.592 379.532C89.76 395.02 95.9274 405.66 122.198 393.017C150.473 379.41 147.051 375.252 162.802 365.863L209.859 350.735M259.792 262.089C268.124 271.561 300.905 295.119 293.277 362.214M321.442 342.143C322.541 340.472 351.1 361.652 404.489 338.718C447.199 320.372 515.723 266.059 544.645 241.196" stroke="white" stroke-opacity="0.6" stroke-width="2"/>
<defs>
<filter id="filter0_f_184_401" x="0.674805" y="113.569" width="626.947" height="360.211" filterUnits="userSpaceOnUse" color-interpolation-filters="sRGB">
<feFlood flood-opacity="0" result="BackgroundImageFix"/>
<feBlend mode="normal" in="SourceGraphic" in2="BackgroundImageFix" result="shape"/>
<feGaussianBlur stdDeviation="25" result="effect1_foregroundBlur_184_401"/>
</filter>
<filter id="filter1_f_184_401" x="20.6748" y="133.569" width="586.947" height="320.211" filterUnits="userSpaceOnUse" color-interpolation-filters="sRGB">
<feFlood flood-opacity="0" result="BackgroundImageFix"/>
<feBlend mode="normal" in="SourceGraphic" in2="BackgroundImageFix" result="shape"/>
<feGaussianBlur stdDeviation="15" result="effect1_foregroundBlur_184_401"/>
</filter>
<filter id="filter2_f_184_401" x="30.6748" y="143.569" width="566.947" height="300.211" filterUnits="userSpaceOnUse" color-interpolation-filters="sRGB">
<feFlood flood-opacity="0" result="BackgroundImageFix"/>
<feBlend mode="normal" in="SourceGraphic" in2="BackgroundImageFix" result="shape"/>
<feGaussianBlur stdDeviation="10" result="effect1_foregroundBlur_184_401"/>
</filter>
</defs>
</svg>
